<svg width="134" height="24" viewBox="0 0 134 24" fill="none" xmlns="http://www.w3.org/2000/svg">
<g clip-path="url(#clip0_4611_31)">
<path fill-rule="evenodd" clip-rule="evenodd" d="M112.6 23.1C114.1 23.7 116.8 24 118.3 24V0C116.7 0 114 0.3 112.6 0.9C111.1 1.5 109.8 2.4 108.7 3.5C107.6 4.6 106.7 5.9 106.1 7.4C105.5 8.9 105.2 10.4 105.2 12C105.2 13.6 105.5 15.1 106.1 16.6C106.7 18.1 107.6 19.4 108.7 20.5C109.8 21.6 111.1 22.5 112.6 23.1ZM29.2999 23.1C30.5999 23.7 32 24 33.7 24C35.4 24 36.3999 23.8 37.5999 23.4C38.7999 23 39.9 22.4 40.9 21.6V23.6H45.4V8.2C45.4 5.6 44.6 3.5 42.9 2.1C41.3 0.7 38.9 0 35.9 0C32.9 0 32.7999 0.2 31.2999 0.6C29.7999 1 28.1 1.6 26.4 2.4L28.1 5.8C29.5 5.1 30.7999 4.6 32 4.3C33.2 4 34.2999 3.8 35.2999 3.8C37.0999 3.8 38.5 4.2 39.5 5C40.5 5.8 41 7.1 41 8.7V11.2C39.0999 10.3 37 9.9 34.7 9.9C32.4 9.9 29.5 10.5 27.7999 11.8C26.0999 13 25.2999 14.8 25.2999 16.9C25.2999 19 25.6999 19.5 26.4 20.6C27.1 21.7 28.1 22.5 29.4 23.1H29.2999ZM31 19.6C30.1 18.9 29.6 18 29.6 16.9C29.6 15.8 30.1 14.8 31 14.1C32 13.4 33.2999 13.1 35 13.1C36.7 13.1 37.2 13.2 38.2 13.5C39.2 13.7 40.0999 14.1 41 14.6V18.5C40.2 19.3 39.2 19.8 38.2 20.2C37.2 20.5 36.1 20.7 34.9 20.7C33.7 20.7 32.1 20.4 31.1 19.7L31 19.6ZM61.4 24C59.2 24 57.2 23.5 55.4 22.4C53.6 21.3 52.0999 19.9 51.0999 18.1C50.0999 16.3 49.5999 14.3 49.5999 12C49.5999 9.7 50.1 7.7 51.2 6C52.2999 4.2 53.7 2.7 55.5 1.7C57.2999 0.6 59.2999 0.1 61.5 0.1C63.7 0.1 64.9 0.4 66.5 1.1C68.1 1.8 69.5 2.7 70.7 3.9L67.9 7C67 6 66 5.3 64.9 4.8C63.8 4.3 62.7 4.1 61.5 4.1C60.2999 4.1 58.7999 4.4 57.7 5.1C56.6 5.8 55.7 6.8 55 8C54.2999 9.2 54 10.6 54 12C54 13.4 54.2999 14.8 55 16C55.7 17.2 56.6 18.2 57.7 18.9C58.9 19.6 60.0999 19.9 61.5999 19.9C63.0999 19.9 63.9 19.7 64.9 19.2C65.9 18.7 66.9 18 67.8 17.1L70.6 20C69.4 21.2 68 22.2 66.4 22.9C64.8 23.6 63.2 23.9 61.4 23.9V24ZM81.6 24C79.9 24 78.5 23.7 77.2 23.1C75.8999 22.5 74.8999 21.7 74.2 20.6C73.5 19.5 73.1 18.3 73.1 16.9C73.1 14.7 73.9 13 75.6 11.8C77.2999 10.5 79.6 9.9 82.5 9.9C85.4 9.9 86.9 10.3 88.8 11.2V8.7C88.8 7 88.3 5.8 87.3 5C86.4 4.2 85 3.8 83.1 3.8C81.2 3.8 80.9 4 79.8 4.3C78.6 4.6 77.4 5.1 75.9 5.8L74.2 2.4C76 1.6 77.6 1 79.1 0.6C80.6 0.2 82.1 0 83.7 0C86.7 0 89 0.7 90.7 2.1C92.3999 3.5 93.2 5.6 93.2 8.2V23.6H88.7V21.6C87.7 22.4 86.6 23 85.4 23.4C84.2 23.8 82.9 24 81.5 24H81.6ZM77.4 16.9C77.4 18 77.9 18.9 78.8 19.6C79.8 20.3 81 20.6 82.6 20.6C84.2 20.6 84.9 20.4 85.9 20.1C86.9 19.7 87.8999 19.2 88.7 18.4V14.5C87.7999 14 86.9 13.6 85.9 13.4C85 13.2 83.8999 13 82.7 13C81.5 13 79.7 13.3 78.7 14C77.7999 14.7 77.3 15.6 77.3 16.8L77.4 16.9ZM10.2 23.6L0.199951 0.5H5.19995L12.4 17.8L19.7 0.5H24.5L14.6 23.6H10.2ZM129.2 24C131.7 24 133.8 22 133.8 19.4C133.8 16.8 131.8 14.8 129.2 14.8C126.6 14.8 124.6 16.8 124.6 19.4C124.6 22 126.6 24 129.2 24ZM133.8 4.6C133.8 7.1 131.8 9.2 129.2 9.2C126.6 9.2 124.6 7.2 124.6 4.6C124.6 2 126.6 0 129.2 0C131.8 0 133.8 2 133.8 4.6Z" fill="url(#paint0_linear_4611_31)"/>
</g>
<defs>
<linearGradient id="paint0_linear_4611_31" x1="48.7" y1="-27.5" x2="91.5999" y2="48" gradientUnits="userSpaceOnUse">
<stop stop-color="#3300FF"/>
<stop offset="1" stop-color="#FFC5C8"/>
</linearGradient>
<clipPath id="clip0_4611_31">
<rect width="134" height="24" fill="white"/>
</clipPath>
</defs>
</svg>
